<svg xmlns="http://www.w3.org/2000/svg" viewBox="0 0 123.65 82.56"><g id="a"></g><g id="b"><g id="c"><path d="M64.34,25.47c31.12,1.73,50.47,8.4,50.47,17.83,0,10.7-32.17,19.37-69.51,19.37-16.79,0-32.15-1.76-43.97-4.66,12.73,4.43,31.72,7.24,52.93,7.24,38.33,0,69.39-9.18,69.39-20.49s-22.86-18.67-59.32-19.28" style="fill:#706f6f;"></path><path d="M108.8,61.94h.7l1.04,3.07,1.03-3.07h.7v3.64h-.47v-2.14c0-.08,0-.2,0-.37,0-.17,0-.36,0-.55l-1.03,3.07h-.49l-1.04-3.07v.11c0,.09,0,.22,0,.41,0,.18,0,.32,0,.4v2.14h-.47v-3.64Z" style="fill:#1d1d1b;"></path><path d="M113.01,61.94h1.64c.27,0,.5,.04,.67,.12,.33,.15,.5,.44,.5,.86,0,.22-.04,.4-.13,.54-.09,.14-.22,.25-.37,.33,.14,.06,.25,.13,.32,.23,.07,.09,.11,.25,.12,.46l.02,.49c0,.14,.01,.24,.03,.31,.03,.12,.08,.19,.16,.22v.08h-.6s-.03-.07-.04-.12c-.01-.05-.02-.14-.03-.29l-.03-.61c-.01-.24-.1-.39-.25-.48-.09-.04-.23-.07-.43-.07h-1.08v1.56h-.49v-3.64Zm1.59,1.67c.23,0,.4-.05,.53-.14,.13-.09,.2-.26,.2-.5,0-.26-.09-.43-.27-.53-.1-.05-.22-.07-.39-.07h-1.16v1.24h1.1Z" style="fill:#1d1d1b;"></path><polygon points="16.5 82.19 44.86 57.73 40.79 57.73 68.58 29.32 59.12 29.32 82.62 0 102.72 0 77.58 24.53 87.63 24.53 51.02 54.61 55.5 54.61 16.79 82.56 16.5 82.19" style="fill:#fff;"></polygon><polygon points="82.73 .24 102.14 .24 76.99 24.76 86.96 24.76 50.35 54.85 54.76 54.85 16.65 82.37 45.5 57.49 41.36 57.49 69.14 29.09 59.61 29.09 82.73 .24" style="fill:#e30613;"></polygon><path d="M12.73,32.76h10.73l.55,16.62h-7.55l-.19-2.69-6.76-.05-1.85,2.75H0l12.73-16.63Zm.2,9.61l3.28-.06-.12-3.67-3.16,3.73Z" style="fill:#fff;"></path><path d="M16.48,46.46l-7.11-.06-1.85,2.75H.48l12.36-16.16h10.38l.54,16.15h-7.09l-.19-2.69Zm-.03-3.92l-.16-4.53-3.89,4.61,4.05-.08Z" style="fill:#1d1d1b;"></path><path d="M104.78,32.73h10.72l.56,16.63h-7.56l-.19-2.69-6.76-.05-1.85,2.75h-7.65l12.73-16.63Zm.19,9.61l3.28-.06-.12-3.67-3.16,3.73Z" style="fill:#fff;"></path><path d="M108.53,46.44l-7.11-.06-1.85,2.75h-7.05l12.37-16.16h10.38l.54,16.15h-7.09l-.19-2.68Zm-.03-3.93l-.15-4.52-3.9,4.6,4.05-.08Z" style="fill:#1d1d1b;"></path><polygon points="29.91 32.76 42.34 32.75 42.19 41.29 47.94 32.75 59.08 32.75 53.41 49.38 46.23 49.38 48.52 41.56 43.24 49.38 35.58 49.38 35.24 41.11 32.14 49.38 25.22 49.39 29.91 32.76" style="fill:#fff;"></polygon><polygon points="43.11 49.14 35.81 49.15 35.42 39.93 31.97 49.15 25.54 49.15 30.09 32.99 42.1 32.99 41.94 42.09 48.07 32.99 58.74 32.98 53.24 49.14 46.55 49.14 49.17 40.17 43.11 49.14" style="fill:#1d1d1b;"></polygon><polygon points="60.55 32.75 77.75 32.74 76.63 36.95 65.78 36.99 65.37 38.48 74.16 38.44 72.9 42.96 64.53 42.8 63.78 44.65 74 44.73 72.92 49.37 55.87 49.37 60.55 32.75" style="fill:#fff;"></polygon><polygon points="56.18 49.14 60.72 32.98 77.44 32.98 76.45 36.71 65.6 36.76 65.06 38.72 73.85 38.68 72.72 42.72 64.37 42.56 63.43 44.89 73.7 44.96 72.73 49.13 56.18 49.14" style="fill:#1d1d1b;"></polygon><path d="M84.15,49.88c-1.15,0-5.06-.07-6.81-.96-1.43-.73-1.64-1.01-2.26-1.84v-.02c-.49-.64-.65-2.38-.35-3.52,.15-.55,.38-.9,.7-1.04l.04-.02h6.67l.02,.22c.09,1.08,.43,2.17,.75,2.44,.53,.43,1.21,.47,1.86,.47,.06,0,.3,0,.35,0,.76,0,1.83-.12,2.51-.39,.33-.13,.67-.48,.67-.86,0-.33-.3-.67-.88-1-.26-.16-.66-.27-1.46-.5-.35-.1-.8-.23-1.34-.39-1.81-.54-3.15-1.01-3.99-1.37-.87-.38-1.56-.88-2.06-1.48-.52-.62-.79-1.35-.81-2.18-.03-1.44,.7-2.65,2.17-3.59,1.48-.95,4.24-1.59,6.88-1.59h.05c4.15,0,6.78,.27,8.03,.83,2.12,.94,2.19,2.73,1.95,4.53l-.03,.2-7.2,.07-.04-.2c-.12-.72-.24-.92-.83-1.38-.04-.03-.32-.2-1.46-.2-.28,0-.59,0-.93,.03-.84,.05-1.35,.32-1.64,.53-.18,.14-.24,.3-.21,.65,.01,.22,.16,.31,.56,.52,.1,.05,.21,.11,.32,.17,.26,.15,.86,.19,1.63,.23,.58,.03,1.24,.07,1.99,.17,2.19,.29,4.24,.84,4.99,1.36,1.1,.74,2.29,1.91,1.57,4.4-.39,1.35-2.1,3.33-3.83,4.42-1.37,.87-3.85,1.29-7.59,1.29h-.02Z" style="fill:#fff;"></path><path d="M75.54,42.72h6.4c.08,1,.4,2.25,.84,2.6,.71,.57,1.63,.52,2.36,.52,.76,0,1.87-.12,2.6-.4,.43-.17,.82-.62,.81-1.08-.01-.48-.43-.87-1-1.2-.41-.24-1.04-.37-2.84-.91-1.81-.54-3.13-1-3.96-1.36-.84-.36-1.5-.83-1.98-1.42-.48-.58-.74-1.26-.75-2.04-.02-1.36,.66-2.49,2.06-3.38,1.4-.9,4.07-1.55,6.75-1.55,2.72,0,6.39,.1,7.98,.8,1.91,.85,2.06,2.42,1.82,4.28l-6.79,.06c-.13-.77-.27-1.02-.92-1.52-.29-.22-1.22-.3-2.55-.22-.82,.05-1.4,.3-1.76,.58-.28,.21-.33,.49-.31,.86,.03,.46,.48,.58,1,.88,.52,.31,1.88,.2,3.71,.44,2.11,.28,4.16,.82,4.89,1.32,1.1,.73,2.15,1.81,1.48,4.14-.39,1.35-2.13,3.27-3.73,4.28-1.6,1.01-4.57,1.25-7.46,1.25-1.99,0-5.25-.18-6.72-.94-1.39-.71-1.57-.96-2.19-1.79-.61-.83-.65-3.8,.27-4.2" style="fill:#1d1d1b;"></path></g></g></svg>