<?xml version="1.0" encoding="utf-8"?>
<!-- Generator: Adobe Illustrator 24.1.0, SVG Export Plug-In . SVG Version: 6.00 Build 0)  -->
<svg version="1.1" id="Layer_1" xmlns="http://www.w3.org/2000/svg" xmlns:xlink="http://www.w3.org/1999/xlink" x="0px" y="0px"
	 viewBox="0 0 1415 612" style="enable-background:new 0 0 1415 612;" xml:space="preserve">
<style type="text/css">
	.st0{fill:#C3C5CB;}
	.st1{fill:#3B7FB2;}
</style>
<g>
	<g>
		<g>
			<path class="st0" d="M657.4,293.6l-0.1-68.2l-33.8,56.9h-6.2l-33.8-56.5v67.8h-12.8V200h11l39.1,65.8l38.5-65.8h11l0.1,93.6
				H657.4z"/>
			<path class="st0" d="M698.4,200h13.4v93.6h-13.4V200z"/>
			<path class="st0" d="M756.4,288.4c-7.5-4.1-13.4-9.9-17.7-17.1c-4.3-7.3-6.4-15.5-6.4-24.5s2.1-17.3,6.4-24.5
				c4.3-7.3,10.2-13,17.8-17.1c7.6-4.1,16.1-6.2,25.4-6.2c7.3,0,14,1.2,20.1,3.7c6.1,2.5,11.2,6.1,15.5,10.9l-8.7,8.4
				c-7-7.4-15.8-11.1-26.4-11.1c-7,0-13.2,1.6-18.9,4.7c-5.6,3.1-10,7.4-13.2,12.9c-3.2,5.5-4.7,11.6-4.7,18.4
				c0,6.8,1.6,12.9,4.7,18.4c3.2,5.5,7.6,9.8,13.2,12.9c5.6,3.1,11.9,4.7,18.9,4.7c10.4,0,19.2-3.7,26.4-11.2l8.7,8.4
				c-4.3,4.8-9.5,8.5-15.6,11c-6.1,2.5-12.8,3.7-20.1,3.7C772.4,294.7,763.9,292.6,756.4,288.4z"/>
			<path class="st0" d="M899.2,293.6L879,264.8c-2.5,0.2-4.5,0.3-5.9,0.3h-23.1v28.5h-13.4V200h36.5c12.1,0,21.7,2.9,28.6,8.7
				c7,5.8,10.4,13.8,10.4,23.9c0,7.2-1.8,13.4-5.4,18.5c-3.6,5.1-8.7,8.8-15.3,11.1l22.2,31.4H899.2z M892.1,248.2
				c4.5-3.7,6.7-8.9,6.7-15.7s-2.2-12-6.7-15.6c-4.5-3.6-10.9-5.4-19.4-5.4h-22.7v42.1h22.7C881.2,253.7,887.6,251.9,892.1,248.2z"
				/>
			<path class="st0" d="M950.5,288.4c-7.6-4.1-13.5-9.9-17.9-17.2c-4.3-7.3-6.5-15.5-6.5-24.5c0-9,2.2-17.2,6.5-24.5
				c4.3-7.3,10.3-13,17.9-17.2c7.6-4.1,16.1-6.2,25.6-6.2c9.4,0,17.8,2.1,25.4,6.2c7.6,4.1,13.5,9.9,17.8,17.1
				c4.3,7.3,6.4,15.5,6.4,24.5s-2.1,17.3-6.4,24.5c-4.3,7.3-10.2,13-17.8,17.1c-7.6,4.1-16.1,6.2-25.4,6.2
				C966.6,294.7,958.1,292.6,950.5,288.4z M994.6,278.1c5.5-3.1,9.8-7.4,13-12.9c3.2-5.5,4.7-11.6,4.7-18.4c0-6.8-1.6-12.9-4.7-18.4
				c-3.2-5.5-7.5-9.8-13-12.9s-11.7-4.7-18.5-4.7c-6.9,0-13.1,1.6-18.7,4.7c-5.6,3.1-9.9,7.4-13.1,12.9c-3.2,5.5-4.7,11.6-4.7,18.4
				c0,6.8,1.6,12.9,4.7,18.4c3.2,5.5,7.5,9.8,13.1,12.9c5.6,3.1,11.8,4.7,18.7,4.7C983,282.8,989.1,281.2,994.6,278.1z"/>
		</g>
		<g>
			<path class="st1" d="M635.8,326.5c7,5.8,10.4,13.8,10.4,23.9c0,10.2-3.5,18.1-10.4,23.9c-7,5.8-16.5,8.7-28.6,8.7H584v28.4h-13.4
				v-93.6h36.5C619.3,317.8,628.8,320.7,635.8,326.5z M626.1,366c4.5-3.6,6.7-8.8,6.7-15.6s-2.2-12-6.7-15.6
				c-4.5-3.6-10.9-5.4-19.4-5.4H584v42h22.7C615.2,371.4,621.7,369.6,626.1,366z"/>
			<path class="st1" d="M728.5,411.4l-20.2-28.8c-2.5,0.2-4.5,0.3-5.9,0.3h-23.1v28.5h-13.4v-93.6h36.5c12.1,0,21.7,2.9,28.6,8.7
				s10.4,13.8,10.4,23.9c0,7.2-1.8,13.4-5.4,18.5c-3.6,5.1-8.7,8.8-15.3,11.1l22.2,31.4H728.5z M721.4,366.1
				c4.5-3.7,6.7-8.9,6.7-15.7s-2.2-12-6.7-15.6c-4.5-3.6-10.9-5.4-19.4-5.4h-22.7v42.1H702C710.5,371.6,716.9,369.7,721.4,366.1z"/>
			<path class="st1" d="M831.1,399.8v11.6h-68v-93.6h66.1v11.6h-52.7v28.8h47v11.4h-47v30.2H831.1z"/>
			<path class="st1" d="M868.9,406.3c-7.5-4.1-13.4-9.9-17.7-17.1c-4.3-7.3-6.4-15.5-6.4-24.5s2.1-17.3,6.4-24.5
				c4.3-7.3,10.2-13,17.8-17.1c7.6-4.1,16.1-6.2,25.4-6.2c7.3,0,14,1.2,20.1,3.7c6.1,2.5,11.2,6.1,15.5,10.9l-8.7,8.4
				c-7-7.4-15.8-11.1-26.4-11.1c-7,0-13.2,1.6-18.9,4.7c-5.6,3.1-10,7.4-13.2,12.9c-3.2,5.5-4.7,11.6-4.7,18.4
				c0,6.8,1.6,12.9,4.7,18.4c3.2,5.5,7.6,9.8,13.2,12.9c5.6,3.1,11.9,4.7,18.9,4.7c10.4,0,19.2-3.7,26.4-11.2l8.7,8.4
				c-4.3,4.8-9.5,8.5-15.6,11c-6.1,2.5-12.8,3.7-20.1,3.7C884.9,412.5,876.4,410.4,868.9,406.3z"/>
			<path class="st1" d="M949.1,317.8h13.4v93.6h-13.4V317.8z"/>
			<path class="st1" d="M997.4,409.2c-6.6-2.2-11.7-5-15.5-8.5l4.9-10.4c3.6,3.2,8.1,5.8,13.7,7.8c5.6,2,11.3,3,17.2,3
				c7.8,0,13.6-1.3,17.4-3.9c3.8-2.6,5.8-6.1,5.8-10.5c0-3.2-1.1-5.8-3.1-7.8c-2.1-2-4.7-3.5-7.8-4.6c-3.1-1.1-7.4-2.3-13-3.6
				c-7-1.7-12.7-3.4-17.1-5.1c-4.3-1.7-8-4.3-11.1-7.8c-3.1-3.5-4.6-8.3-4.6-14.2c0-5,1.3-9.5,3.9-13.5c2.6-4,6.6-7.2,12-9.6
				c5.4-2.4,12-3.6,19.9-3.6c5.5,0,11,0.7,16.3,2.1c5.4,1.4,9.9,3.5,13.8,6.2l-4.4,10.7c-3.9-2.5-8.1-4.4-12.6-5.7
				c-4.5-1.3-8.8-1.9-13.1-1.9c-7.6,0-13.3,1.4-17.1,4.1c-3.8,2.8-5.7,6.3-5.7,10.7c0,3.2,1.1,5.8,3.2,7.8c2.1,2,4.8,3.6,8,4.7
				c3.2,1.1,7.5,2.3,12.9,3.5c7,1.7,12.7,3.4,17,5.1c4.3,1.7,8,4.3,11,7.8c3.1,3.5,4.6,8.2,4.6,14c0,4.9-1.3,9.4-4,13.4
				c-2.7,4.1-6.7,7.3-12.2,9.6c-5.4,2.4-12.1,3.5-20.1,3.5C1010.8,412.5,1004,411.4,997.4,409.2z"/>
			<path class="st1" d="M1073.6,317.8h13.4v93.6h-13.4V317.8z"/>
			<path class="st1" d="M1131.8,406.3c-7.6-4.1-13.5-9.9-17.9-17.2c-4.3-7.3-6.5-15.5-6.5-24.5c0-9,2.2-17.2,6.5-24.5
				c4.3-7.3,10.3-13,17.9-17.2c7.6-4.1,16.1-6.2,25.6-6.2c9.4,0,17.8,2.1,25.4,6.2c7.6,4.1,13.5,9.9,17.8,17.1
				c4.3,7.3,6.4,15.5,6.4,24.5s-2.1,17.3-6.4,24.5c-4.3,7.3-10.2,13-17.8,17.1c-7.6,4.1-16.1,6.2-25.4,6.2
				C1147.9,412.5,1139.4,410.4,1131.8,406.3z M1175.9,395.9c5.5-3.1,9.8-7.4,13-12.9s4.7-11.6,4.7-18.4c0-6.8-1.6-12.9-4.7-18.4
				c-3.2-5.5-7.5-9.8-13-12.9c-5.5-3.1-11.7-4.7-18.5-4.7c-6.9,0-13.1,1.6-18.7,4.7c-5.6,3.1-9.9,7.4-13.1,12.9
				c-3.2,5.5-4.7,11.6-4.7,18.4c0,6.8,1.6,12.9,4.7,18.4c3.2,5.5,7.5,9.8,13.1,12.9c5.6,3.1,11.8,4.7,18.7,4.7
				C1164.2,400.6,1170.4,399,1175.9,395.9z"/>
			<path class="st1" d="M1308,317.8v93.6h-11l-56.2-69.8v69.8h-13.4v-93.6h11l56.2,69.8v-69.8H1308z"/>
		</g>
	</g>
	<g>
		<path class="st1" d="M277.3,518.4v-222h186.9c0.2,3,0.2,6,0.2,8.9c0,92.1-71.9,170.1-163.6,177.6l-5.7,0.5v35H277.3z M295.2,465.6
			l6.8-0.7c76-7.4,136.5-67.9,143.9-143.9l0.7-6.8H295.2V465.6z"/>
		<path class="st0" d="M248.6,479.6C166.7,462,108,389.8,108,305.3c0-2.9,0.1-5.9,0.2-8.9h17.9c-0.2,3-0.3,6-0.3,8.9
			c0,73.9,51.3,138.7,122.8,155.9V479.6z"/>
		<path class="st1" d="M442.1,267.7c-15.9-65.5-72.8-115.4-140.2-122l-6.8-0.7v122.6h-17.8V145.1l-6.8,0.7
			c-67.4,6.6-124.4,56.4-140.2,122H112c16.4-76.5,81.1-133.6,159.6-140l5.7-0.5V93h17.8v34.3l5.7,0.5c78.5,6.4,143.2,63.5,159.6,140
			H442.1z"/>
	</g>
</g>
</svg>
