<?xml version="1.0" encoding="UTF-8"?>
<svg id="Capa_2" data-name="Capa 2" xmlns="http://www.w3.org/2000/svg" xmlns:xlink="http://www.w3.org/1999/xlink" viewBox="0 0 627.23 257.97">
  <defs>
    <style>
      .cls-1 {
        fill: #fff;
      }

      .cls-2 {
        clip-path: url(#clippath);
      }
    </style>
    <clipPath id="clippath">
      <path class="cls-1" d="M233.98,59.39c1.04,1.02,1.58,2.35,1.58,3.82l.02,12.95c0,1.37,1.09,2.49,2.47,2.49h16.69c1.39.01,2.49-1.1,2.49-2.48v-16.68c0-1.37-1.12-2.48-2.49-2.48h-12.96c-1.47,0-2.78-.56-3.82-1.59l-41.65-41.65c-1.04-1.04-1.59-2.36-1.59-3.84V2.49C194.72,1.13,193.6,0,192.23,0h-11.05c-1.37,0-2.49,1.13-2.49,2.49v11.03c0,1.37,1.13,2.48,2.49,2.48h7.18c1.48,0,2.78.56,3.83,1.59l41.78,41.79M231.51,117.89v17c0,1.38,1.12,2.49,2.49,2.49h20.73c1.37,0,2.49-1.11,2.49-2.49v-20.74c0-1.35-1.11-2.48-2.47-2.48h-17.01c-1.48,0-2.79-.54-3.84-1.58l-37.48-37.5c-1.04-1.04-1.6-2.36-1.6-3.84v-12.28c0-1.37-1.11-2.48-2.48-2.48h-16c-1.37,0-2.49,1.12-2.49,2.48v16.02c0,1.37,1.11,2.48,2.49,2.48h12.28c1.47,0,2.78.54,3.82,1.58l37.5,37.5c1.04,1.04,1.58,2.36,1.58,3.84ZM225.69,170.95v20c0,1.37,1.12,2.48,2.48,2.48h26.56c1.36,0,2.49-1.11,2.49-2.48v-26.55c0-1.38-1.12-2.49-2.49-2.49h-19.98c-1.47-.01-2.79-.55-3.84-1.59l-29.43-29.42c-1.04-1.04-1.59-2.36-1.59-3.82v-10.11c0-1.38-1.1-2.49-2.49-2.49h-12.93c-1.48,0-2.79-.54-3.83-1.58l-41.8-41.8c-1.05-1.05-1.59-2.35-1.59-3.84v-7.3c0-1.37-1.12-2.48-2.49-2.48h-11.05c-1.37,0-2.48,1.13-2.48,2.48v11.03c0,1.37,1.1,2.49,2.48,2.49h7.32c1.47,0,2.78.54,3.83,1.58l41.79,41.8c1.04,1.04,1.6,2.35,1.6,3.82v12.97c0,1.37,1.11,2.47,2.48,2.47h10.1c1.49,0,2.79.55,3.84,1.61l29.43,29.41c1.03,1.04,1.58,2.36,1.58,3.82ZM213.71,222.42v32.35c0,1.38,1.1,2.49,2.49,2.49h38.54c1.39,0,2.49-1.12,2.49-2.49v-38.53c0-1.37-1.12-2.48-2.49-2.48h-32.37c-1.49,0-2.78-.55-3.84-1.59l-22.5-22.5c-1.04-1.04-1.58-2.34-1.58-3.82v-19.46c0-1.35-1.11-2.46-2.48-2.46h-19.45c-1.48,0-2.79-.55-3.83-1.61l-32.24-32.24c-1.04-1.04-1.59-2.35-1.59-3.82v-9.84c0-1.37-1.12-2.48-2.49-2.48h-16.01c-1.38,0-2.47,1.12-2.47,2.48v16c0,1.37,1.09,2.49,2.47,2.49h9.84c1.48,0,2.8.54,3.84,1.58l32.23,32.22c1.04,1.04,1.58,2.36,1.58,3.85v19.44c0,1.37,1.13,2.47,2.49,2.47h19.44c1.49,0,2.78.55,3.83,1.59l22.5,22.51c1.05,1.05,1.59,2.35,1.59,3.82ZM161.15,235.49v19.98c.01,1.38,1.12,2.49,2.49,2.49h26.56c1.37,0,2.48-1.11,2.48-2.49v-26.55c0-1.37-1.12-2.48-2.48-2.48h-19.99c-1.47-.01-2.79-.55-3.83-1.59l-29.42-29.43c-1.05-1.03-1.59-2.35-1.59-3.84v-10.11c0-1.37-1.12-2.48-2.49-2.48h-12.93c-1.49,0-2.79-.54-3.84-1.58l-41.8-41.79c-1.04-1.04-1.58-2.36-1.58-3.85v-7.3c0-1.35-1.13-2.47-2.48-2.47h-11.05c-1.35,0-2.49,1.1-2.49,2.47v11.04c0,1.38,1.13,2.49,2.49,2.49h7.31c1.49,0,2.79.54,3.85,1.58l41.78,41.79c1.05,1.04,1.58,2.35,1.58,3.84v12.96c0,1.37,1.13,2.47,2.49,2.47h10.1c1.49,0,2.79.54,3.84,1.59l29.42,29.43c1.04,1.04,1.58,2.35,1.58,3.82ZM111.22,237.78v17c0,1.38,1.1,2.49,2.47,2.49h20.75c1.37,0,2.48-1.12,2.48-2.49v-20.71c0-1.38-1.11-2.49-2.48-2.49h-17.01c-1.49,0-2.78-.54-3.84-1.59l-37.31-37.28c-1.03-1.05-1.57-2.37-1.57-3.85v-12.26c0-1.37-1.13-2.48-2.49-2.48h-16.01c-1.37,0-2.48,1.11-2.48,2.48v16c0,1.37,1.12,2.49,2.48,2.49h12.29c1.46,0,2.78.53,3.82,1.57l37.28,37.31c1.04,1.04,1.6,2.34,1.6,3.82ZM57.01,241.84v12.93c0,1.39,1.12,2.49,2.49,2.49h16.69c1.37,0,2.47-1.12,2.47-2.49v-16.67c-.01-1.35-1.11-2.47-2.48-2.47h-12.96c-1.47,0-2.78-.56-3.83-1.59l-41.8-41.79c-1.04-1.04-1.58-2.36-1.58-3.84v-7.23c0-1.38-1.11-2.48-2.48-2.48H2.48C1.11,178.7,0,179.82,0,181.18v11.04c0,1.35,1.11,2.49,2.48,2.49h7.4c1.47,0,2.78.53,3.82,1.57l41.73,41.73c1.04,1.04,1.58,2.35,1.58,3.82ZM16.48,240.65H4.84c-1.37,0-2.49,1.11-2.49,2.48v11.64c0,1.38,1.11,2.49,2.49,2.49h11.64c1.38,0,2.49-1.12,2.49-2.49v-11.64c0-1.37-1.13-2.48-2.49-2.48ZM72.35,2.69h-4.75c-1.38,0-2.49,1.12-2.49,2.49v4.74c0,1.37,1.11,2.49,2.49,2.49h4.75c1.38,0,2.49-1.13,2.49-2.49v-4.74c0-1.38-1.11-2.49-2.49-2.49ZM71.76,62.05h-7.27c-1.38,0-2.5,1.1-2.5,2.49v7.28c0,1.37,1.12,2.48,2.5,2.48h7.27c1.38,0,2.48-1.13,2.48-2.48v-7.28c0-1.37-1.1-2.49-2.48-2.49ZM10.81,122.98H3.54c-1.37,0-2.48,1.14-2.48,2.49v7.28c0,1.37,1.11,2.49,2.48,2.49h7.28c1.37,0,2.49-1.13,2.49-2.49v-7.28c0-1.37-1.13-2.49-2.49-2.49ZM9.41,65.05h-4.73c-1.38,0-2.48,1.11-2.48,2.49v4.73c0,1.38,1.11,2.48,2.48,2.48h4.73c1.37,0,2.49-1.11,2.49-2.48v-4.73c0-1.37-1.11-2.49-2.49-2.49ZM7.62.46H2.89c-1.37,0-2.49,1.11-2.49,2.48v4.75c0,1.37,1.13,2.48,2.49,2.48h4.74c1.37,0,2.48-1.13,2.48-2.48V2.94c0-1.37-1.12-2.48-2.48-2.48ZM133.02.8h-7.28c-1.37,0-2.48,1.1-2.48,2.47v7.28c0,1.38,1.1,2.49,2.48,2.49h7.28c1.38,0,2.49-1.1,2.49-2.49V3.27c0-1.37-1.12-2.47-2.49-2.47ZM254.73,2.69h-11.64c-1.38,0-2.49,1.12-2.49,2.49v11.64c0,1.38,1.11,2.48,2.49,2.48h11.64c1.37,0,2.49-1.12,2.49-2.48V5.18c0-1.38-1.1-2.49-2.49-2.49Z"/>
    </clipPath>
  </defs>
  <g id="Capa_1-2" data-name="Capa 1">
    <g>
      <path class="cls-1" d="M284.74,15.6c-.16-4.13,2.94-7.5,7.12-7.5s6.48,3.37,7.31,7.58c.08,1,.54,1.27,1.54,1.27h4.94c1.11,0,1.19-.73,1.19-1.65-.54-7.82-6.12-14.6-15.24-14.6s-15.14,6.58-15.14,14.98c0,16.89,24.99,25.17,24.55,38.88-.19,5.21-3.75,8.85-8.69,8.85-5.48,0-8.85-4.48-9.39-9.23-.11-.92-.54-1.19-1.57-1.19h-4.91c-1.11,0-1.19.73-1.19,1.65.35,9.12,7.47,16.16,16.97,16.16,8.58,0,16.97-6.31,16.97-16.81,0-17.51-23.91-27.36-24.47-38.4Z"/>
      <path class="cls-1" d="M353.93,22.15c-3.64.46-6.93,2.83-9.2,6.13-2.37-4.67-6.85-6.66-11.22-6.13-3.67.46-6.21,2.75-7.96,5.13l-.54-2.56c-.27-1.38-.65-1.92-2-1.92h-2.83c-1.38,0-1.92.54-1.92,1.92v43.33c0,1.38.54,1.92,1.92,1.92h3.91c1.38,0,1.92-.54,1.92-1.92v-30.84c0-5.37,2.91-8.01,6.21-8.12,3.21-.19,6.58,2.02,6.58,8.12v30.84c0,1.38.54,1.92,1.92,1.92h3.91c1.38,0,1.92-.54,1.92-1.92v-30.57c0-5.75,2.91-8.28,6.21-8.39,3.1-.19,6.58,2.02,6.58,8.12v30.84c0,1.38.54,1.92,1.92,1.92h3.83c1.38,0,1.92-.54,1.92-1.92v-31.38c0-10.5-6.58-15.33-13.06-14.52Z"/>
      <path class="cls-1" d="M405.68,68.16c-.38-1.83-.84-3.94-.84-7.2l-.08-23.2c0-11.49-7.02-15.78-13.87-15.78s-12.87,3.94-13.25,10.95c-.08.84.11,1.65,1.19,1.65h4.13c.81,0,1.35-.27,1.54-1.11.73-2.54,2.75-4.64,6.02-4.64s6.58,2.19,6.58,7.47v2.56c-12.06,1.83-20.91,4.56-20.91,17.24,0,10.6,7.04,15.33,13.52,14.52,3.1-.19,6.21-1.73,8.12-4.48.46,3.37.81,3.83,2.27,3.83h3.75c1.38,0,2.1-.46,1.83-1.81ZM397.1,55.56c0,5.29-3.1,7.93-6.39,8.12-3.18.19-6.75-2.1-6.83-7.85-.11-8.39,4.18-10.12,13.22-11.76v11.49Z"/>
      <path class="cls-1" d="M430.5,22.53c-2.94,0-6.21,1.35-8.69,4.37l-.43-2.19c-.3-1.38-.65-1.92-2.02-1.92h-2.83c-1.35,0-1.92.54-1.92,1.92v43.33c0,1.38.57,1.92,1.92,1.92h3.94c1.35,0,1.92-.54,1.92-1.92v-29.46c0-5.56,3.56-8.04,8.12-8.04,1.35,0,1.92-.54,1.92-1.92v-4.18c0-1.38-.57-1.92-1.92-1.92Z"/>
      <path class="cls-1" d="M449.39,29.28h4.56c1.38,0,1.92-.54,1.92-1.92v-2.64c0-1.38-.54-1.92-1.92-1.92h-4.67c-.89,0-1.16-.27-1.16-1.19v-6.58c0-1.27-.57-1.92-1.94-1.92h-3.45c-1.38,0-1.92.65-1.92,1.92v6.58c0,.92-.27,1.19-1.19,1.19h-2c-1.38,0-1.92.54-1.92,1.92v2.64c0,1.38.54,1.92,1.92,1.92h1.73c.92,0,1.19.27,1.19,1.19v26.63c0,9.15,4.48,12.87,13.41,12.87,1.38,0,1.92-.54,1.92-1.92v-3c0-1.38-.54-1.92-1.92-1.92-3.83,0-5.75-2.02-5.75-6.04v-26.63c0-.92.27-1.19,1.19-1.19Z"/>
      <path class="cls-1" d="M303.2,79.11h-27.39c-1.38,0-1.92.54-1.92,1.92v3.45c0,1.38.54,1.92,1.92,1.92h7.85c1.38,0,1.73.38,1.73,1.73v57.5c0,1.38.54,1.92,1.92,1.92h4.37c1.38,0,1.94-.54,1.94-1.92v-57.5c0-1.35.35-1.73,1.73-1.73h7.85c1.35,0,1.92-.54,1.92-1.92v-3.45c0-1.38-.57-1.92-1.92-1.92Z"/>
      <path class="cls-1" d="M322.63,99.54c-7.02,0-14.41,4.4-14.41,17.16v14.52c0,12.76,7.39,17.16,14.41,17.16,6.29,0,12.22-3.67,13.06-10.95.08-.84-.11-1.65-1.19-1.65h-4.4c-.81,0-1.27.27-1.54,1.08-.81,2.29-2.75,4.4-5.94,4.4s-6.75-2.1-6.75-7.85v-8.04c0-.73.19-.89.92-.89h17.78c1.38,0,1.83-.57,1.92-1.94.11-1.73.19-3,.19-4.91v-1.73c0-12.33-7.39-16.35-14.06-16.35ZM329.67,117.7c0,.73-.19.92-.92.92h-11.95c-.73,0-.92-.19-.92-.92v-3.18c0-6.13,3.83-8.12,6.83-8.12s6.96,2,6.96,8.12v3.18Z"/>
      <path class="cls-1" d="M371.9,135.78h-4.29c-.81,0-1.27.27-1.54,1.08-.73,2.29-2.75,4.4-5.94,4.4s-6.66-2.1-6.66-7.85v-18.89c0-5.75,3.48-7.85,6.66-7.85s5.13,2,5.94,4.37c.27.84.73,1.11,1.54,1.11h4.29c1.11,0,1.3-.84,1.19-1.65-.81-7.31-6.75-10.95-13.14-10.95-7.1,0-14.22,4.4-14.22,16.35v16.05c0,12.03,7.12,16.43,14.22,16.43,6.39,0,12.25-3.67,13.14-10.95.11-.84-.08-1.65-1.19-1.65Z"/>
      <path class="cls-1" d="M398.02,99.73c-3.29.46-5.94,2.46-7.77,4.56v-23.26c0-1.38-.54-1.92-1.92-1.92h-3.91c-1.38,0-1.92.54-1.92,1.92v64.6c0,1.38.54,1.92,1.92,1.92h3.91c1.38,0,1.92-.54,1.92-1.92v-30.84c0-5.4,3.21-8.04,6.48-8.12,3.21-.19,6.93,2,6.93,8.12v30.84c0,1.38.57,1.92,1.92,1.92h3.94c1.38,0,1.92-.54,1.92-1.92v-31.38c0-10.5-6.93-15.33-13.41-14.52Z"/>
      <path class="cls-1" d="M436.79,99.73c-3.64.46-6.39,2.73-8.2,5.1l-.57-2.54c-.27-1.38-.62-1.92-2-1.92h-2.83c-1.35,0-1.92.54-1.92,1.92v43.33c0,1.38.57,1.92,1.92,1.92h3.94c1.35,0,1.92-.54,1.92-1.92v-30.84c0-5.4,3.18-8.04,6.48-8.12,3.18-.19,6.93,2,6.93,8.12v30.84c0,1.38.54,1.92,1.92,1.92h3.91c1.38,0,1.92-.54,1.92-1.92v-31.38c0-10.5-6.93-15.33-13.41-14.52Z"/>
      <path class="cls-1" d="M474.03,99.54c-6.85,0-14.41,4.48-14.41,16.35v16.05c0,11.95,7.56,16.43,14.41,16.43s14.52-4.48,14.52-16.43v-16.05c0-11.87-7.58-16.35-14.52-16.35ZM480.77,133.13c0,6.02-3.64,8.12-6.75,8.12s-6.66-2.1-6.66-8.12v-18.35c0-6.13,3.64-8.12,6.66-8.12s6.75,2,6.75,8.12v18.35Z"/>
      <path class="cls-1" d="M511.07,140.71c-3.29-.11-5.37-1.83-5.37-6.04v-53.64c0-1.38-.57-1.92-1.92-1.92h-3.94c-1.38,0-1.92.54-1.92,1.92v53.18c0,9.5,4.21,13.33,13.14,13.33,1.38,0,1.92-.54,1.92-1.92v-3c0-1.38-.54-1.83-1.92-1.92Z"/>
      <path class="cls-1" d="M533.9,99.54c-6.85,0-14.44,4.48-14.44,16.35v16.05c0,11.95,7.58,16.43,14.44,16.43s14.52-4.48,14.52-16.43v-16.05c0-11.87-7.58-16.35-14.52-16.35ZM540.65,133.13c0,6.02-3.64,8.12-6.75,8.12s-6.66-2.1-6.66-8.12v-18.35c0-6.13,3.64-8.12,6.66-8.12s6.75,2,6.75,8.12v18.35Z"/>
      <path class="cls-1" d="M584.36,100.38h-2.83c-1.38,0-1.73.54-2,1.92l-.57,2.37c-1.73-2.29-4.56-4.48-8.12-4.94-6.48-.73-13.49,3.91-13.49,14.52v19.43c0,10.5,6.93,15.33,13.41,14.52,3.29-.46,5.94-2.46,7.77-4.56v7.47c0,5.75-3.48,7.93-6.77,7.93s-5.02-2.08-5.83-4.45c-.27-.84-.73-1.11-1.57-1.11h-4.56c-1.08,0-1.27.84-1.19,1.65.84,7.31,7.04,10.95,13.41,10.95,7.12,0,14.25-4.4,14.25-16.35v-47.44c0-1.38-.54-1.92-1.92-1.92ZM578.53,133.13c0,5.37-3.21,8.01-6.5,8.12-3.18.19-6.93-2.02-6.93-8.12v-18.35c0-6.02,3.75-8.31,6.93-8.12,3.29.08,6.5,2.83,6.5,8.12v18.35Z"/>
      <path class="cls-1" d="M624.16,100.38h-4.56c-1.19,0-1.75.62-2.1,1.81l-8.04,31.22c-.19.65-.92.65-1.08,0l-8.04-31.22c-.27-1.19-.92-1.81-2.1-1.81h-4.56c-1,0-1.46.62-1.19,1.81l12.03,41.98c.84,2.64.84,3.29-1,9.69-1,3.37-3.56,3.99-6.48,4.37-1.38.08-1.92.54-1.92,1.92v3.18c0,1.38.54,1.92,1.92,1.92,5.29,0,10.5-1.92,12.33-8.01l15.97-55.04c.35-1.19-.19-1.81-1.19-1.81Z"/>
      <path class="cls-1" d="M282.72,168.16h10.12c1.05,0,1.46-.4,1.46-1.46v-2.62c0-1.05-.4-1.46-1.46-1.46h-16.27c-1.05,0-1.46.4-1.46,1.46v49.03c0,1.05.4,1.46,1.46,1.46h16.27c1.05,0,1.46-.4,1.46-1.46v-2.62c0-1.05-.4-1.46-1.46-1.46h-10.12c-1.03,0-1.32-.27-1.32-1.32v-15.87c0-1.03.3-1.32,1.32-1.32h10.12c1.05,0,1.46-.4,1.46-1.46v-2.62c0-1.05-.4-1.46-1.46-1.46h-10.12c-1.03,0-1.32-.27-1.32-1.32v-14.19c0-1.05.3-1.32,1.32-1.32Z"/>
      <path class="cls-1" d="M322.98,213.19l-7.77-16.27c-.22-.43-.22-.78,0-1.19l7.47-15.6c.43-.97-.27-1.38-.89-1.38h-3.32c-.92,0-1.32.27-1.81,1.38l-5.53,12.06c-.13.35-.57.35-.7,0l-5.61-12.06c-.49-1.11-.89-1.38-1.81-1.38h-3.32c-.62,0-1.24.4-.84,1.38l7.47,15.6c.22.4.22.76,0,1.19l-7.82,16.27c-.4.97.3,1.38.92,1.38h3.24c.92,0,1.32-.4,1.81-1.38l5.96-12.55c.22-.35.57-.35.7,0l5.94,12.55c.49.97.84,1.38,1.75,1.38h3.32c.62,0,1.32-.4.84-1.38Z"/>
      <path class="cls-1" d="M339.17,178.27c-2.78.35-4.86,2.08-6.23,3.89l-.4-1.94c-.22-1.05-.49-1.46-1.54-1.46h-2.13c-1.05,0-1.46.4-1.46,1.46v46.33c0,1.05.4,1.46,1.46,1.46h2.97c1.05,0,1.46-.4,1.46-1.46v-14.95c1.38,1.59,3.4,3.1,5.88,3.45,4.91.62,10.17-3.05,10.17-11.01v-14.76c0-7.96-5.26-11.63-10.17-11.01ZM343.46,203.64c0,4.64-2.83,6.29-5.26,6.15-2.48-.08-4.91-2.08-4.91-6.15v-13.92c0-4.1,2.43-6.1,4.91-6.18,2.43-.13,5.26,1.54,5.26,6.18v13.92Z"/>
      <path class="cls-1" d="M367.09,178.14c-5.21,0-10.95,3.4-10.95,12.39v12.2c0,9.07,5.75,12.47,10.95,12.47s11.01-3.4,11.01-12.47v-12.2c0-8.99-5.75-12.39-11.01-12.39ZM372.22,203.64c0,4.56-2.78,6.15-5.13,6.15s-5.07-1.59-5.07-6.15v-13.92c0-4.64,2.78-6.18,5.07-6.18s5.13,1.54,5.13,6.18v13.92Z"/>
      <g>
        <path class="cls-1" d="M233.98,59.39c1.04,1.02,1.58,2.35,1.58,3.82l.02,12.95c0,1.37,1.09,2.49,2.47,2.49h16.69c1.39.01,2.49-1.1,2.49-2.48v-16.68c0-1.37-1.12-2.48-2.49-2.48h-12.96c-1.47,0-2.78-.56-3.82-1.59l-41.65-41.65c-1.04-1.04-1.59-2.36-1.59-3.84V2.49C194.72,1.13,193.6,0,192.23,0h-11.05c-1.37,0-2.49,1.13-2.49,2.49v11.03c0,1.37,1.13,2.48,2.49,2.48h7.18c1.48,0,2.78.56,3.83,1.59l41.78,41.79M231.51,117.89v17c0,1.38,1.12,2.49,2.49,2.49h20.73c1.37,0,2.49-1.11,2.49-2.49v-20.74c0-1.35-1.11-2.48-2.47-2.48h-17.01c-1.48,0-2.79-.54-3.84-1.58l-37.48-37.5c-1.04-1.04-1.6-2.36-1.6-3.84v-12.28c0-1.37-1.11-2.48-2.48-2.48h-16c-1.37,0-2.49,1.12-2.49,2.48v16.02c0,1.37,1.11,2.48,2.49,2.48h12.28c1.47,0,2.78.54,3.82,1.58l37.5,37.5c1.04,1.04,1.58,2.36,1.58,3.84ZM225.69,170.95v20c0,1.37,1.12,2.48,2.48,2.48h26.56c1.36,0,2.49-1.11,2.49-2.48v-26.55c0-1.38-1.12-2.49-2.49-2.49h-19.98c-1.47-.01-2.79-.55-3.84-1.59l-29.43-29.42c-1.04-1.04-1.59-2.36-1.59-3.82v-10.11c0-1.38-1.1-2.49-2.49-2.49h-12.93c-1.48,0-2.79-.54-3.83-1.58l-41.8-41.8c-1.05-1.05-1.59-2.35-1.59-3.84v-7.3c0-1.37-1.12-2.48-2.49-2.48h-11.05c-1.37,0-2.48,1.13-2.48,2.48v11.03c0,1.37,1.1,2.49,2.48,2.49h7.32c1.47,0,2.78.54,3.83,1.58l41.79,41.8c1.04,1.04,1.6,2.35,1.6,3.82v12.97c0,1.37,1.11,2.47,2.48,2.47h10.1c1.49,0,2.79.55,3.84,1.61l29.43,29.41c1.03,1.04,1.58,2.36,1.58,3.82ZM213.71,222.42v32.35c0,1.38,1.1,2.49,2.49,2.49h38.54c1.39,0,2.49-1.12,2.49-2.49v-38.53c0-1.37-1.12-2.48-2.49-2.48h-32.37c-1.49,0-2.78-.55-3.84-1.59l-22.5-22.5c-1.04-1.04-1.58-2.34-1.58-3.82v-19.46c0-1.35-1.11-2.46-2.48-2.46h-19.45c-1.48,0-2.79-.55-3.83-1.61l-32.24-32.24c-1.04-1.04-1.59-2.35-1.59-3.82v-9.84c0-1.37-1.12-2.48-2.49-2.48h-16.01c-1.38,0-2.47,1.12-2.47,2.48v16c0,1.37,1.09,2.49,2.47,2.49h9.84c1.48,0,2.8.54,3.84,1.58l32.23,32.22c1.04,1.04,1.58,2.36,1.58,3.85v19.44c0,1.37,1.13,2.47,2.49,2.47h19.44c1.49,0,2.78.55,3.83,1.59l22.5,22.51c1.05,1.05,1.59,2.35,1.59,3.82ZM161.15,235.49v19.98c.01,1.38,1.12,2.49,2.49,2.49h26.56c1.37,0,2.48-1.11,2.48-2.49v-26.55c0-1.37-1.12-2.48-2.48-2.48h-19.99c-1.47-.01-2.79-.55-3.83-1.59l-29.42-29.43c-1.05-1.03-1.59-2.35-1.59-3.84v-10.11c0-1.37-1.12-2.48-2.49-2.48h-12.93c-1.49,0-2.79-.54-3.84-1.58l-41.8-41.79c-1.04-1.04-1.58-2.36-1.58-3.85v-7.3c0-1.35-1.13-2.47-2.48-2.47h-11.05c-1.35,0-2.49,1.1-2.49,2.47v11.04c0,1.38,1.13,2.49,2.49,2.49h7.31c1.49,0,2.79.54,3.85,1.58l41.78,41.79c1.05,1.04,1.58,2.35,1.58,3.84v12.96c0,1.37,1.13,2.47,2.49,2.47h10.1c1.49,0,2.79.54,3.84,1.59l29.42,29.43c1.04,1.04,1.58,2.35,1.58,3.82ZM111.22,237.78v17c0,1.38,1.1,2.49,2.47,2.49h20.75c1.37,0,2.48-1.12,2.48-2.49v-20.71c0-1.38-1.11-2.49-2.48-2.49h-17.01c-1.49,0-2.78-.54-3.84-1.59l-37.31-37.28c-1.03-1.05-1.57-2.37-1.57-3.85v-12.26c0-1.37-1.13-2.48-2.49-2.48h-16.01c-1.37,0-2.48,1.11-2.48,2.48v16c0,1.37,1.12,2.49,2.48,2.49h12.29c1.46,0,2.78.53,3.82,1.57l37.28,37.31c1.04,1.04,1.6,2.34,1.6,3.82ZM57.01,241.84v12.93c0,1.39,1.12,2.49,2.49,2.49h16.69c1.37,0,2.47-1.12,2.47-2.49v-16.67c-.01-1.35-1.11-2.47-2.48-2.47h-12.96c-1.47,0-2.78-.56-3.83-1.59l-41.8-41.79c-1.04-1.04-1.58-2.36-1.58-3.84v-7.23c0-1.38-1.11-2.48-2.48-2.48H2.48C1.11,178.7,0,179.82,0,181.18v11.04c0,1.35,1.11,2.49,2.48,2.49h7.4c1.47,0,2.78.53,3.82,1.57l41.73,41.73c1.04,1.04,1.58,2.35,1.58,3.82ZM16.48,240.65H4.84c-1.37,0-2.49,1.11-2.49,2.48v11.64c0,1.38,1.11,2.49,2.49,2.49h11.64c1.38,0,2.49-1.12,2.49-2.49v-11.64c0-1.37-1.13-2.48-2.49-2.48ZM72.35,2.69h-4.75c-1.38,0-2.49,1.12-2.49,2.49v4.74c0,1.37,1.11,2.49,2.49,2.49h4.75c1.38,0,2.49-1.13,2.49-2.49v-4.74c0-1.38-1.11-2.49-2.49-2.49ZM71.76,62.05h-7.27c-1.38,0-2.5,1.1-2.5,2.49v7.28c0,1.37,1.12,2.48,2.5,2.48h7.27c1.38,0,2.48-1.13,2.48-2.48v-7.28c0-1.37-1.1-2.49-2.48-2.49ZM10.81,122.98H3.54c-1.37,0-2.48,1.14-2.48,2.49v7.28c0,1.37,1.11,2.49,2.48,2.49h7.28c1.37,0,2.49-1.13,2.49-2.49v-7.28c0-1.37-1.13-2.49-2.49-2.49ZM9.41,65.05h-4.73c-1.38,0-2.48,1.11-2.48,2.49v4.73c0,1.38,1.11,2.48,2.48,2.48h4.73c1.37,0,2.49-1.11,2.49-2.48v-4.73c0-1.37-1.11-2.49-2.49-2.49ZM7.62.46H2.89c-1.37,0-2.49,1.11-2.49,2.48v4.75c0,1.37,1.13,2.48,2.49,2.48h4.74c1.37,0,2.48-1.13,2.48-2.48V2.94c0-1.37-1.12-2.48-2.48-2.48ZM133.02.8h-7.28c-1.37,0-2.48,1.1-2.48,2.47v7.28c0,1.38,1.1,2.49,2.48,2.49h7.28c1.38,0,2.49-1.1,2.49-2.49V3.27c0-1.37-1.12-2.47-2.49-2.47ZM254.73,2.69h-11.64c-1.38,0-2.49,1.12-2.49,2.49v11.64c0,1.38,1.11,2.48,2.49,2.48h11.64c1.37,0,2.49-1.12,2.49-2.48V5.18c0-1.38-1.1-2.49-2.49-2.49Z"/>
        <g class="cls-2">
          <rect class="cls-1" x="0" y="0" width="257.22" height="257.97"/>
        </g>
      </g>
      <g>
        <path class="cls-1" d="M305.41,248.46c0,1.21-.78,2.13-1.97,2.13-1.11,0-2-.92-2-2.13s.89-2.19,2-2.19c1.19,0,1.97.94,1.97,2.19Z"/>
        <path class="cls-1" d="M356.36,242.57l-2.83,5.83h5.67l-2.83-5.83ZM356.36,242.57l-2.83,5.83h5.67l-2.83-5.83ZM356.36,242.57l-2.83,5.83h5.67l-2.83-5.83ZM356.36,242.57l-2.83,5.83h5.67l-2.83-5.83ZM356.36,242.57l-2.83,5.83h5.67l-2.83-5.83ZM420.9,241.31c-4.24,0-5.15,2.46-5.15,5.56s.92,5.67,5.18,5.67,5.1-2.67,5.1-5.69-.97-5.53-5.13-5.53ZM420.9,241.31c-4.24,0-5.15,2.46-5.15,5.56s.92,5.67,5.18,5.67,5.1-2.67,5.1-5.69-.97-5.53-5.13-5.53ZM356.36,242.57l-2.83,5.83h5.67l-2.83-5.83ZM356.36,242.57l-2.83,5.83h5.67l-2.83-5.83ZM420.9,241.31c-4.24,0-5.15,2.46-5.15,5.56s.92,5.67,5.18,5.67,5.1-2.67,5.1-5.69-.97-5.53-5.13-5.53ZM481.85,241.58h-5.96v4.37h5.96c1.94,0,3.08-.51,3.08-2.29s-1.32-2.08-3.08-2.08ZM481.85,241.58h-5.96v4.37h5.96c1.94,0,3.08-.51,3.08-2.29s-1.32-2.08-3.08-2.08ZM420.9,241.31c-4.24,0-5.15,2.46-5.15,5.56s.92,5.67,5.18,5.67,5.1-2.67,5.1-5.69-.97-5.53-5.13-5.53ZM356.36,242.57l-2.83,5.83h5.67l-2.83-5.83ZM356.36,242.57l-2.83,5.83h5.67l-2.83-5.83ZM420.9,241.31c-4.24,0-5.15,2.46-5.15,5.56s.92,5.67,5.18,5.67,5.1-2.67,5.1-5.69-.97-5.53-5.13-5.53ZM481.85,241.58h-5.96v4.37h5.96c1.94,0,3.08-.51,3.08-2.29s-1.32-2.08-3.08-2.08ZM481.85,241.58h-5.96v4.37h5.96c1.94,0,3.08-.51,3.08-2.29s-1.32-2.08-3.08-2.08ZM420.9,241.31c-4.24,0-5.15,2.46-5.15,5.56s.92,5.67,5.18,5.67,5.1-2.67,5.1-5.69-.97-5.53-5.13-5.53ZM356.36,242.57l-2.83,5.83h5.67l-2.83-5.83ZM356.36,242.57l-2.83,5.83h5.67l-2.83-5.83ZM420.9,241.31c-4.24,0-5.15,2.46-5.15,5.56s.92,5.67,5.18,5.67,5.1-2.67,5.1-5.69-.97-5.53-5.13-5.53ZM481.85,241.58h-5.96v4.37h5.96c1.94,0,3.08-.51,3.08-2.29s-1.32-2.08-3.08-2.08ZM481.85,241.58h-5.96v4.37h5.96c1.94,0,3.08-.51,3.08-2.29s-1.32-2.08-3.08-2.08ZM420.9,241.31c-4.24,0-5.15,2.46-5.15,5.56s.92,5.67,5.18,5.67,5.1-2.67,5.1-5.69-.97-5.53-5.13-5.53ZM356.36,242.57l-2.83,5.83h5.67l-2.83-5.83ZM626.83,236.1h-352.8c-.22,0-.4.16-.4.38v20.4c0,.22.19.4.4.4h352.8c.22,0,.4-.19.4-.4v-20.4c0-.22-.19-.38-.4-.38ZM304.31,253.61c-1.19,0-2.16-.38-2.86-1.08v.78h-3.62v-13.92h3.62v4.96c.7-.7,1.67-1.08,2.86-1.08,2.7,0,4.72,2.08,4.72,5.18s-2.02,5.15-4.72,5.15ZM315.34,256.6h-3.8l1.57-3.64-4.05-9.42h3.8l2.08,5.18,2.24-5.18h3.83l-5.67,13.06ZM343.54,255.2h-4.21v-6.85h-7.69v6.85h-4.26v-16.59h4.26v6.77h7.69v-6.77h4.21v16.59ZM362.08,255.2l-1.92-3.86h-7.61l-1.89,3.86h-4.96l8.26-16.59h4.86l8.26,16.59h-4.99ZM386.58,255.2h-5.21l-8.09-12.17v12.17h-4.07v-16.59h5.45l7.91,12.36v-12.36h4.02v16.59ZM408.03,255.2h-5.21l-8.12-12.17v12.17h-4.05v-16.59h5.42l7.93,12.36v-12.36h4.02v16.59ZM421.17,255.31c-2.29,0-5.07-.46-6.93-1.62-2.46-1.54-3.21-4.29-3.21-6.69,0-5.59,3.02-8.5,9.85-8.5s9.82,3.05,9.82,8.61c0,5.26-3.13,8.2-9.52,8.2ZM439.22,255.2l-8.39-16.59h4.78l5.86,12.49,5.96-12.49h4.75l-8.72,16.59h-4.24ZM468.01,241.58h-5.53c-.89,0-2.46,0-3.35.3-.59.19-1.03.49-1.43.92-.73.76-.78,1.73-.89,2.7h11.2v2.91h-11.2c.32,3.18,2.32,3.83,5.86,3.83h5.34v2.97h-5.53c-1.73,0-3.91-.08-5.56-.57-3.7-1.11-4.91-4.91-4.91-7.88s1.21-5.77,4.26-7.37c1.35-.7,3.02-.78,4.59-.78h7.15v2.97ZM485.14,255.2c-.3-.78-.35-1.56-.46-2.35-.38-3.1-1.7-3.94-5.4-3.94h-3.4v6.29h-4.24v-16.59h9.74c1.46,0,3.05.03,4.45.35,2.35.57,3.75,2.29,3.75,4.29,0,2.27-1.11,4.1-3.8,4.8,1.73.51,2.4.94,3.1,2.37.54,1.11.49,2.29.62,3.43.08.49.19.89.38,1.35h-4.75ZM523.13,255.2h-4.05v-12.49l-5.21,12.49h-4.34l-4.94-12.49v12.49h-4.05v-16.62h6.23l4.94,12.98,5.21-12.98h6.21v16.62ZM541.83,241.55h-5.53c-.86,0-2.46.03-3.35.3-.59.22-1.03.49-1.43.92-.7.78-.76,1.75-.89,2.7h11.2v2.94h-11.2c.32,3.18,2.29,3.83,5.86,3.83h5.34v2.97h-5.53c-1.7,0-3.91-.08-5.53-.57-3.72-1.13-4.94-4.91-4.94-7.88s1.21-5.77,4.26-7.37c1.35-.7,3.02-.81,4.59-.81h7.15v2.97ZM562.5,253.61c-1.7,1.7-4.05,1.59-6.45,1.59h-10.01v-2.97h9.07c1.67,0,3.97-.03,3.97-1.92,0-.54-.27-1.08-.7-1.43-.7-.62-1.83-.67-2.75-.67h-3.67c-1.16,0-2.62-.08-3.72-.43-2.05-.67-3.16-2.54-3.16-4.29,0-1.35.73-2.91,1.94-3.8,1.59-1.16,3.8-1.11,5.8-1.11h9.85v2.97h-8.9c-1.81,0-3.97-.19-3.97,1.83,0,1.81,2.02,1.89,3.62,1.89h3.21c1.54,0,3.02.05,4.45.62,2,.81,2.73,2.67,2.73,4.4,0,1.16-.4,2.4-1.3,3.32ZM583.55,253.61c-1.67,1.7-4.05,1.59-6.45,1.59h-10.01v-2.97h9.09c1.67,0,3.97-.03,3.97-1.92,0-.54-.27-1.08-.73-1.43-.67-.62-1.83-.67-2.75-.67h-3.64c-1.19,0-2.64-.08-3.75-.43-2.02-.67-3.16-2.54-3.16-4.29,0-1.35.73-2.91,1.97-3.8,1.59-1.16,3.8-1.11,5.8-1.11h9.82v2.97h-8.88c-1.81,0-3.99-.19-3.99,1.83,0,1.81,2.02,1.89,3.64,1.89h3.18c1.54,0,3.05.05,4.48.62,1.97.81,2.73,2.67,2.73,4.4,0,1.16-.43,2.4-1.32,3.32ZM603.43,241.55h-5.53c-.89,0-2.48.03-3.35.3-.59.22-1.03.49-1.43.92-.73.78-.78,1.75-.89,2.7h11.2v2.94h-11.2c.32,3.18,2.29,3.83,5.86,3.83h5.34v2.97h-5.53c-1.73,0-3.91-.08-5.56-.57-3.7-1.13-4.94-4.91-4.94-7.88s1.24-5.77,4.29-7.37c1.35-.7,3.02-.81,4.56-.81h7.18v2.97ZM481.85,241.58h-5.96v4.37h5.96c1.94,0,3.08-.51,3.08-2.29s-1.32-2.08-3.08-2.08ZM420.9,241.31c-4.24,0-5.15,2.46-5.15,5.56s.92,5.67,5.18,5.67,5.1-2.67,5.1-5.69-.97-5.53-5.13-5.53ZM353.52,248.4h5.67l-2.83-5.83-2.83,5.83ZM356.36,242.57l-2.83,5.83h5.67l-2.83-5.83ZM420.9,241.31c-4.24,0-5.15,2.46-5.15,5.56s.92,5.67,5.18,5.67,5.1-2.67,5.1-5.69-.97-5.53-5.13-5.53ZM481.85,241.58h-5.96v4.37h5.96c1.94,0,3.08-.51,3.08-2.29s-1.32-2.08-3.08-2.08ZM481.85,241.58h-5.96v4.37h5.96c1.94,0,3.08-.51,3.08-2.29s-1.32-2.08-3.08-2.08ZM420.9,241.31c-4.24,0-5.15,2.46-5.15,5.56s.92,5.67,5.18,5.67,5.1-2.67,5.1-5.69-.97-5.53-5.13-5.53ZM356.36,242.57l-2.83,5.83h5.67l-2.83-5.83ZM356.36,242.57l-2.83,5.83h5.67l-2.83-5.83ZM420.9,241.31c-4.24,0-5.15,2.46-5.15,5.56s.92,5.67,5.18,5.67,5.1-2.67,5.1-5.69-.97-5.53-5.13-5.53ZM481.85,241.58h-5.96v4.37h5.96c1.94,0,3.08-.51,3.08-2.29s-1.32-2.08-3.08-2.08ZM481.85,241.58h-5.96v4.37h5.96c1.94,0,3.08-.51,3.08-2.29s-1.32-2.08-3.08-2.08ZM420.9,241.31c-4.24,0-5.15,2.46-5.15,5.56s.92,5.67,5.18,5.67,5.1-2.67,5.1-5.69-.97-5.53-5.13-5.53ZM356.36,242.57l-2.83,5.83h5.67l-2.83-5.83ZM356.36,242.57l-2.83,5.83h5.67l-2.83-5.83ZM420.9,241.31c-4.24,0-5.15,2.46-5.15,5.56s.92,5.67,5.18,5.67,5.1-2.67,5.1-5.69-.97-5.53-5.13-5.53ZM420.9,241.31c-4.24,0-5.15,2.46-5.15,5.56s.92,5.67,5.18,5.67,5.1-2.67,5.1-5.69-.97-5.53-5.13-5.53ZM356.36,242.57l-2.83,5.83h5.67l-2.83-5.83ZM356.36,242.57l-2.83,5.83h5.67l-2.83-5.83ZM420.9,241.31c-4.24,0-5.15,2.46-5.15,5.56s.92,5.67,5.18,5.67,5.1-2.67,5.1-5.69-.97-5.53-5.13-5.53ZM420.9,241.31c-4.24,0-5.15,2.46-5.15,5.56s.92,5.67,5.18,5.67,5.1-2.67,5.1-5.69-.97-5.53-5.13-5.53ZM356.36,242.57l-2.83,5.83h5.67l-2.83-5.83ZM356.36,242.57l-2.83,5.83h5.67l-2.83-5.83ZM356.36,242.57l-2.83,5.83h5.67l-2.83-5.83Z"/>
      </g>
    </g>
  </g>
</svg>