<?xml version="1.0" encoding="utf-8"?>
<!-- Generator: Adobe Illustrator 25.4.1, SVG Export Plug-In . SVG Version: 6.00 Build 0)  -->
<svg version="1.1" id="图层_1" xmlns="http://www.w3.org/2000/svg" xmlns:xlink="http://www.w3.org/1999/xlink" x="0px" y="0px"
	 viewBox="0 0 481.89 113.39" style="enable-background:new 0 0 481.89 113.39;" xml:space="preserve">
<style type="text/css">
	.st0{fill:#77828C;}
	.st1{fill:#E62310;}
</style>
<g>
	<g>
		<polygon class="st0" points="157.21,84.21 157.21,62.86 134.51,62.86 134.51,84.21 123.81,84.21 123.81,31.87 134.51,31.87 
			134.51,52.44 157.21,52.44 157.21,31.87 167.9,31.87 167.9,84.21 		"/>
		<rect x="177.87" y="31.87" class="st0" width="10.84" height="52.34"/>
		<rect x="198.18" y="31.87" class="st0" width="10.84" height="52.34"/>
		<rect x="307.87" y="31.87" class="st0" width="10.84" height="52.34"/>
		<path class="st0" d="M407.64,84.21l-23.9-27.61h9.98c6.2,0,12.74-1,12.74-7.95c0-6.77-5.47-7.71-10.6-7.71h-12.42v43.27h-10.2
			V31.87h24.71c6.03,0,10.84,1.5,14.29,4.46c3.42,2.93,5.08,7.54,5.08,12.52c0,13.78-13.61,15.57-13.61,15.57l17.85,19.79H407.64z"
			/>
		<path class="st0" d="M448.18,31.16c-16.46,0-24.95,12.04-24.95,26.89c0,14.85,9.22,26.89,24.95,26.89
			c15.74,0,24.95-12.04,24.95-26.89C473.13,43.2,464.63,31.16,448.18,31.16z M448.18,75.34c-9.79,0-14.29-7.74-14.29-17.29
			c0-9.55,4.51-17.29,14.29-17.29c9.78,0,14.29,7.74,14.29,17.29C462.46,67.6,457.97,75.34,448.18,75.34z"/>
		<path class="st0" d="M287.64,31.87l-14.97,26.27l-14.7-26.27h-11.59v52.34h10.1V51.04l-0.32-5.22l0.16-0.02l0.1,0.5
			c0.48,2.35,1.35,4.6,2.57,6.66l13.68,23.06l13.27-22.88c1.26-2.18,2.13-4.56,2.57-7.04l0.05-0.3l0.15,0.02l-0.22,5.23v33.16h10.1
			V31.87H287.64z"/>
		<g>
			<path class="st0" d="M349.83,84.84c-14.94,0-24.62-12.06-24.62-26.87c0-14.82,9.68-26.49,24.62-26.87
				c10.64-0.27,16.09,2.45,16.09,2.45l-1.81,9.45c0,0-7.01-2.85-14.29-2.14c-9.43,0.92-14.2,7.68-14.2,17.11
				c0,9.43,4.63,16.51,14.08,17.2c7.21,0.53,14.41-2.01,14.41-2.01l1.7,9.85C365.82,83.01,359.79,85.05,349.83,84.84z"/>
		</g>
		<polygon class="st0" points="228.17,31.87 207.48,57.91 228.17,84.21 241.43,84.21 220.3,57.73 241.43,31.87 		"/>
	</g>
	<g>
		<path class="st1" d="M50.94,78.38C33.7,78.38,18.4,70.8,8.76,64.6v36.03h84.36V64.6C83.48,70.8,68.18,78.38,50.94,78.38z"/>
		<path class="st1" d="M50.94,35.01c17.24,0,32.54,7.58,42.18,13.77V12.76H8.76v36.03C18.4,42.59,33.7,35.01,50.94,35.01z"/>
	</g>
	<polygon class="st1" points="50.94,80.66 29.9,57.01 50.94,33.35 71.98,57.01 	"/>
</g>
</svg>
