<?xml version="1.0" encoding="UTF-8"?>
<!-- Generator: Adobe Illustrator 27.8.1, SVG Export Plug-In . SVG Version: 6.00 Build 0)  -->
<svg xmlns="http://www.w3.org/2000/svg" xmlns:xlink="http://www.w3.org/1999/xlink" version="1.1" id="Capa_1" x="0px" y="0px" viewBox="0 0 600 191.45" style="enable-background:new 0 0 600 191.45;" xml:space="preserve">
<style type="text/css">
	.st0{fill:#003922;}
	.st1{fill:#00AD64;}
</style>
<g>
	<path class="st0" d="M52.97,79.86l-5.38,58.56c-0.23,2.48,1.74,4.63,4.26,4.63h46.14c2.36,0,4.27-1.9,4.27-4.24v-35   c0-1.51-0.81-2.91-2.12-3.67L59.38,76.57C56.68,75.01,53.26,76.76,52.97,79.86L52.97,79.86z"></path>
	<path class="st1" d="M194.64,101.34l5.02,36.9c0.35,2.55-1.65,4.81-4.23,4.81h-44.86c-2.36,0-4.27-1.9-4.27-4.24v-20.99   c0-1.73,1.06-3.29,2.68-3.93l39.85-15.9C191.41,96.94,194.28,98.6,194.64,101.34L194.64,101.34z"></path>
	<path class="st0" d="M147.08,62.25c-1.24,0.48-2.62,0.36-3.76-0.32l-24.14-14.47c-0.67-0.4-1.43-0.61-2.21-0.61H59.89   c-2.21,0-4.05,1.67-4.25,3.85l-0.77,8.17c-0.15,1.62,0.64,3.19,2.04,4.03l75.29,45.12c1.14,0.68,2.52,0.8,3.76,0.32l53.51-20.76   c1.84-0.71,2.94-2.58,2.68-4.52l-4.2-30.88c-0.37-2.72-3.2-4.38-5.77-3.39L147.08,62.25L147.08,62.25z"></path>
	<path class="st0" d="M350.32,138.94c-4.31-3.62-6.46-8.53-6.46-14.72c0-6.51,2.07-11.54,6.21-15.09   c4.14-3.54,10.02-5.31,17.65-5.31c6.9,0,12.91,1.18,18.03,3.53c1.23,0.56,2.63-0.35,2.63-1.7c0-4.64-1.41-8.08-4.24-10.32   c-2.83-2.24-7.28-3.36-13.35-3.36c-3.61,0-7.11,0.35-10.51,1.04c-2.38,0.49-4.59,1.1-6.63,1.84c-1.23,0.45-2.54-0.43-2.54-1.73   V87.1c0-0.77,0.47-1.45,1.19-1.74c2.27-0.91,5.08-1.65,8.4-2.24c3.93-0.69,7.75-1.04,11.43-1.04c9.76,0,16.99,2.14,21.7,6.41   c4.71,4.27,7.07,10.2,7.07,17.77v34.42c0,1.03-0.84,1.86-1.87,1.86h-7.94c-1.04,0-1.87-0.83-1.87-1.86v-0.48   c0-1.57-1.82-2.4-3.06-1.42c-1.81,1.42-3.81,2.57-5.98,3.46c-3.49,1.42-7.73,2.14-12.73,2.14c-7.13,0-12.85-1.82-17.16-5.43H350.32   z M381.25,132.65c3.02-1.46,5.31-3.47,6.87-6.03c0.18-0.29,0.26-0.63,0.26-0.97v-6.38c0-0.65-0.33-1.26-0.89-1.59   c-5.1-3.05-10.75-4.58-16.94-4.58c-4.76,0-8.3,0.92-10.64,2.75c-2.34,1.83-3.51,4.62-3.51,8.37c0,7.17,4.71,10.75,14.14,10.75   C374.48,134.97,378.05,134.19,381.25,132.65z"></path>
	<path class="st0" d="M419.26,83.91h8.7c1.1,0,1.98,0.88,1.98,1.97v54.68c0,1.09-0.88,1.97-1.98,1.97h-8.7   c-1.1,0-1.98-0.88-1.98-1.97V85.88C417.27,84.79,418.16,83.91,419.26,83.91z M428.59,71.29h-9.96c-0.75,0-1.35-0.6-1.35-1.34v-7.49   c0-0.74,0.61-1.34,1.35-1.34h9.96c0.75,0,1.35,0.6,1.35,1.34v7.49C429.95,70.69,429.34,71.29,428.59,71.29z"></path>
	<path class="st0" d="M449.02,83.91h8.08c1.1,0,1.99,0.88,1.99,1.97v3.33c0,1.71,2.02,2.6,3.31,1.46c1.98-1.75,4.34-3.15,7.08-4.19   c3.93-1.51,8.43-2.35,13.48-2.53c1.13-0.04,2.08,0.85,2.08,1.98v5.71c0,1.06-0.84,1.93-1.91,1.96c-5.51,0.19-10.28,1.2-14.33,3.02   c-4.38,1.98-7.44,5.07-9.19,9.28c-0.1,0.24-0.15,0.51-0.15,0.77v33.9c0,1.09-0.89,1.97-1.98,1.97h-8.45c-1.1,0-1.98-0.88-1.98-1.97   V85.89C447.04,84.8,447.92,83.92,449.02,83.91L449.02,83.91z"></path>
	<path class="st0" d="M539.99,85.88c0-1.09,0.89-1.97,1.98-1.97h8.45c1.1,0,1.98,0.88,1.98,1.97v54.68c0,1.09-0.88,1.97-1.98,1.97   h-8.08c-1.1,0-1.98-0.88-1.98-1.97L539.99,85.88L539.99,85.88z"></path>
	<path class="st0" d="M533.12,131.45c-3.32,2.06-7.14,3.12-11.45,3.15c-7.92,0.07-14.38-6.3-14.38-14.17V85.88   c0-1.09-0.89-1.97-1.98-1.97h-8.45c-1.1,0-1.98,0.89-1.98,1.97v35.16c0,7.08,2.03,12.74,6.08,16.98   c4.06,4.23,10.06,6.35,18.01,6.35c4.42,0,8.55-0.81,12.36-2.44c1.31-0.56,2.55-1.23,3.74-2.01c0.48-0.32,0.76-0.86,0.76-1.43v-5.59   C535.83,131.51,534.3,130.72,533.12,131.45z"></path>
	<path class="st0" d="M328,87.52c-3.2-3.62-8.4-5.43-15.62-5.43c-3.86,0-7.69,0.81-11.5,2.44c-2.97,1.27-5.59,3.02-7.84,5.23   c-0.89,0.87-2.36,0.65-3-0.42c-1.25-2.08-2.91-3.71-4.96-4.88c-2.79-1.59-6.56-2.39-11.31-2.39c-3.77,0-7.42,0.86-10.94,2.57   c-0.93,0.45-1.83,0.97-2.71,1.54c-0.74,0.49-1.2,1.31-1.2,2.19v4.76c0,1.38,1.53,2.18,2.71,1.44c2.77-1.74,5.71-2.61,8.81-2.61   c4.26,0,7.22,1,8.85,2.99c1.64,2,2.46,5.4,2.46,10.2v35.52c0,1.03,0.84,1.86,1.87,1.86h8.31c1.03,0,1.87-0.83,1.87-1.86v-34.66   c0-2.3-0.06-4.07-0.17-5.3c-0.04-0.45,0.08-0.91,0.36-1.27c3.87-4.99,8.81-7.48,14.81-7.48c4.35,0,7.42,1,9.22,2.99   c1.8,2,2.71,5.4,2.71,10.2v35.52c0,1.03,0.84,1.86,1.87,1.86h8.31c1.04,0,1.87-0.83,1.87-1.86v-37.1   C332.79,96.5,331.19,91.15,328,87.52L328,87.52z"></path>
	<path class="st0" d="M254.59,140.68c0,1.03-0.84,1.86-1.87,1.86h-8.43c-1.04,0-1.87-0.83-1.87-1.86V85.77   c0-1.03,0.84-1.86,1.87-1.86h8.06c1.04,0,1.87,0.83,1.87,1.86L254.59,140.68z"></path>
</g>
</svg>
