<svg xmlns="http://www.w3.org/2000/svg" width="224" height="47" viewBox="0 0 224 47" fill="none"><path d="M148.888 17.1604C165.37 17.1604 180.918 17.1604 197.4 17.1604C202.324 17.1604 204.432 19.4518 204.231 23.7398L201.491 47.0007H194.097L196.945 24.5682L147.601 24.8885" fill="#202020"></path><path d="M178.712 28.4653H186.03L183.165 47.0007H175.922L178.712 28.4653Z" fill="#202020"></path><path d="M147.453 28.4188H168.802L165.926 35.9198C162.749 35.8522 158.203 35.8732 155.006 35.8732V39.6546H173.267L170.459 46.9992H144.668" fill="#202020"></path><path d="M106.914 35.8702C107.47 31.0815 107.988 26.2868 108.529 21.4379H118.53L116.527 36.7107L130.754 36.6911C131.693 29.9704 132.613 23.394 133.559 16.6191L111.434 16.6718L108.468 6.37866H136.074C142.042 6.37866 144.055 10.3299 143.481 14.3699C142.723 19.981 140.075 40.6153 140.075 40.6153C139.392 44.5289 137.911 46.9241 133.659 46.9992H105.676" fill="#202020"></path><path d="M73.1106 38.8922C73.1106 38.8922 74.914 31.5385 75.7575 28.4398C75.7575 28.4398 80.7678 28.4052 83.1252 28.4052L80.3677 39.5373H91.3393L94.1684 24.666H75.9053C75.5306 19.8336 79.1704 17.1469 82.1279 17.1469H95.2418C101.373 17.1438 101.666 21.0906 101.427 22.749L97.9007 42.7638C97.3275 45.1995 95.4344 47.0037 92.7113 47.0007L78.8091 46.9917C76.5562 47.0037 70.9279 46.8594 73.1106 38.8922Z" fill="#202020"></path><path d="M44.6134 24.6133L45.8839 17.2656H72.8478L70.3889 24.6449" fill="#202020"></path><path d="M52.105 35.8988V39.6275C58.2036 39.6275 64.1992 39.6275 70.3591 39.6275L67.5539 46.9992H41.9142L44.6463 28.4428C51.6586 28.4428 58.6709 28.4428 65.6817 28.4428L62.9601 35.8491" fill="#202020"></path><path d="M27.8596 6.48389C34.5226 6.48389 37.9608 9.61271 37.6443 14.1819C37.6443 14.1819 37.3457 20.7147 37.0591 23.9713C36.4067 31.3716 35.6796 38.7659 34.9809 46.1617C34.957 46.4173 34.9078 46.6684 34.8585 47.0007H24.9155L27.7193 16.7198L5.51336 16.7469H4.96546C4.2175 13.9654 2.526 6.48389 2.526 6.48389" fill="#202020"></path><path d="M2.79328 21.8453H12.681L9.89667 47.0007H0" fill="#202020"></path><path d="M223.999 10.0863C223.937 15.5351 219.521 19.9855 214.032 19.9554C208.584 19.9254 204.151 15.4494 204.183 9.91946C204.217 4.45717 208.596 0.0668976 213.967 0.000742798C219.538 -0.0669155 224.054 4.49626 224 10.0848L223.999 10.0863ZM205.407 9.9796C205.403 14.7909 209.296 18.7165 214.081 18.7241C218.864 18.7331 222.768 14.8104 222.773 9.98862C222.777 5.17285 218.905 1.2652 214.148 1.23363C209.336 1.20205 205.408 5.13225 205.407 9.97809V9.9796Z" fill="#202020"></path><path d="M210.55 4.72177C211.819 4.72177 213.088 4.71726 214.357 4.72628C215.237 4.73229 216.09 4.89467 216.861 5.42391C217.416 5.8043 217.786 6.42375 217.906 7.08981C218.024 7.74535 218.027 8.39787 217.806 9.02785C217.561 9.72698 217.079 10.2186 216.45 10.5765C216.331 10.6441 216.205 10.7028 216.076 10.7689C216.173 10.9508 216.268 11.1328 216.365 11.3132C217.037 12.5656 217.754 13.9729 218.422 15.2269L216.443 15.2344C215.761 13.9113 215.056 12.5055 214.375 11.1869L212.361 11.1914V15.2254H210.549V4.72177H210.55ZM212.363 9.71646C212.985 9.71646 213.608 9.72247 214.229 9.71195C214.442 9.70894 214.66 9.6894 214.868 9.64279C215.411 9.5195 215.826 9.21879 216.043 8.68354C216.208 8.27158 216.185 7.83556 216.113 7.39803C216.059 7.06425 215.898 6.73949 215.613 6.55907C215.241 6.32302 214.753 6.21326 214.283 6.20424C213.642 6.19071 213.002 6.20123 212.361 6.19973V9.71796L212.363 9.71646Z" fill="#202020"></path></svg>